<?xml version="1.0" encoding="UTF-8"?>
<svg id="Layer_2" data-name="Layer 2" xmlns="http://www.w3.org/2000/svg" viewBox="0 0 206.21 32.75">
  <defs>
    <style>
      .cls-1 {
        fill: #1b79bf;
      }

      .cls-2 {
        fill: #22b697;
      }

      .cls-3 {
        fill: #0f9950;
      }
    </style>
  </defs>
  <g id="Layer_1-2" data-name="Layer 1">
    <g>
      <g>
        <path class="cls-1" d="M0,2.39H5.43L14.7,19.15l3.08,6.36h.18c-.26-3.08-.67-6.86-.67-10.18V2.39h5.03v29.82h-5.44L7.62,15.42l-3.08-6.34h-.18c.25,3.15,.67,6.75,.67,10.07v13.06H0V2.39Z"/>
        <path class="cls-1" d="M57.24,29.85h-.15l-.46,2.35h-4.14V0h5.25V8.33l-.15,3.72c1.87-1.64,4.17-2.79,6.46-2.79,5.6,0,8.84,4.49,8.84,11.37,0,7.69-4.58,12.12-9.56,12.12-2.04,0-4.23-1.04-6.11-2.9Zm10.27-9.14c0-4.47-1.46-7.11-4.87-7.11-1.62,0-3.19,.82-4.89,2.52v10.43c1.57,1.37,3.19,1.86,4.49,1.86,2.99,0,5.27-2.63,5.27-7.7Z"/>
        <path class="cls-1" d="M75.6,26.44V0h5.25V26.72c0,1.29,.58,1.75,1.13,1.75,.24,0,.42,0,.82-.09l.66,3.92c-.64,.26-1.52,.46-2.77,.46-3.72,0-5.09-2.41-5.09-6.31Z"/>
        <path class="cls-1" d="M84.2,21.03c0-7.28,5.05-11.76,10.32-11.76,6.05,0,9.24,4.38,9.24,10.63,0,1-.11,2.01-.23,2.55h-14.21c.44,3.98,2.99,6.24,6.6,6.24,1.91,0,3.56-.6,5.2-1.62l1.79,3.26c-2.13,1.44-4.83,2.43-7.68,2.43-6.18,0-11.03-4.34-11.03-11.73Zm15.03-2.15c0-3.45-1.53-5.54-4.6-5.54-2.61,0-4.91,1.95-5.36,5.54h9.96Z"/>
        <path class="cls-1" d="M110.82,2.39h5.43l2.59,15.06c.48,3.17,.99,6.35,1.48,9.52h.18c.62-3.17,1.28-6.37,1.93-9.52l3.67-15.06h4.6l3.67,15.06c.66,3.09,1.31,6.32,1.97,9.52h.18c.48-3.2,.96-6.4,1.44-9.52l2.59-15.06h5.07l-5.73,29.82h-6.55l-3.7-15.7c-.49-2.32-.93-4.6-1.31-6.86h-.18c-.41,2.26-.86,4.54-1.35,6.86l-3.61,15.7h-6.44l-5.93-29.82Z"/>
        <path class="cls-1" d="M145.67,26.19c0-4.8,3.98-7.29,13.17-8.28-.07-2.41-1.04-4.41-4.07-4.41-2.22,0-4.32,1-6.29,2.21l-1.94-3.5c2.46-1.55,5.64-2.94,9.19-2.94,5.6,0,8.35,3.45,8.35,9.68v13.26h-4.3l-.4-2.48h-.15c-2,1.71-4.3,3.03-6.95,3.03-3.92,0-6.62-2.66-6.62-6.57Zm13.17,.02v-5.03c-6.07,.77-8.1,2.35-8.1,4.61,0,1.98,1.35,2.84,3.23,2.84s3.21-.89,4.87-2.43Z"/>
        <path class="cls-1" d="M165.32,9.81h5.32l3.56,11.62c.62,2.21,1.28,4.51,1.9,6.75h.18c.62-2.24,1.28-4.54,1.9-6.75l3.56-11.62h5.07l-7.6,22.39h-6.07l-7.8-22.39Z"/>
        <path class="cls-1" d="M186.64,21.03c0-7.28,5.05-11.76,10.32-11.76,6.05,0,9.24,4.38,9.24,10.63,0,1-.11,2.01-.23,2.55h-14.21c.44,3.98,2.99,6.24,6.6,6.24,1.91,0,3.56-.6,5.2-1.62l1.79,3.26c-2.13,1.44-4.83,2.43-7.68,2.43-6.18,0-11.03-4.34-11.03-11.73Zm15.03-2.15c0-3.45-1.53-5.54-4.6-5.54-2.61,0-4.91,1.95-5.36,5.54h9.96Z"/>
      </g>
      <g>
        <path class="cls-1" d="M26.94,24.68s.9,3.37,4.31,5.67c2.02-2.21,7.17-2.33,7.17-2.33,0,0-4.57,.55-5.67,3.19,.91,.43,1.96,.79,3.17,.96,7.59,1.03,11.14-4.9,11.14-4.9l-5.65-1.96-10.07-2.28-2.91-.23-1.38,1.09-.1,.78h0"/>
        <path class="cls-1" d="M32.08,17.72c.67,.52,2.34,1.01,2.34,1.01,0,0-1.99-.89-3.31-2.12,.06,.2,.55,.78,.97,1.11Z"/>
        <path class="cls-2" d="M33.19,13.58c-.24,.52-.67,2.88,2.14,5.32-1.61-2.89-1.84-3.93-2.14-5.32Z"/>
        <path class="cls-3" d="M36.38,12.81c-.48,.14-2.08,1-1.04,4.64,.2-3.7,.58-3.87,1.04-4.64Z"/>
        <path class="cls-3" d="M36.09,12.31c1.67-5.67,8.16-6.28,8.76-6.25-.23,.5-.13,3.54-2.36,5.89-2.32,2.46-5.43,2.28-5.94,2.26,1.1-2.26,4.88-5.21,6.36-5.39-1.03,.13-3.69,.08-6.82,3.49Z"/>
        <path class="cls-1" d="M31.02,17.09c-3.26-1.27-3.3-5.13-3.25-5.48,.28,.16,2.08,.26,3.36,1.69,1.34,1.49,1.07,3.32,1.04,3.62-1.28-.77-2.83-3.14-2.87-4.02,.03,.62-.14,2.18,1.72,4.2Z"/>
        <path class="cls-2" d="M32.65,12.63c-1.87-3.86,1.31-7.36,1.65-7.63,.12,.38,1.66,1.96,1.61,4.32-.04,2.46-1.8,3.87-2.08,4.11-.51-1.75,.08-5.18,.78-6-.49,.58-1.94,1.84-1.96,5.21Z"/>
        <path class="cls-2" d="M38.52,21.12c-.44-.48-1.48-2.63,.11-4.81,.78-1.08,2.13-2.18,4.27-2.23,1.39-.03,2.89,.53,3.95,1.62,.76,.78,2.03,2.64,1.96,6.23-.05,2.73-1.55,5.11-1.75,5.35-11.69,2.31-15.91-6.34-20.11-2.59-.19-.59-.4-1.37-.41-1.7,.59-.71,2.98-1.96,5.97-.73,4.67,1.92,7.91,2.23,9.67-.13,.35-.47,.73-1.38,.46-2.35-.37-1.34-1.78-1.92-2.88-1.46-1.61,.68-1.48,2.29-1.23,2.8Z"/>
        <path class="cls-3" d="M26.61,18.7s-.15,.58-.22,1.47-.02,1.55-.02,1.55c0,0,2.08-.95,4.56-.56,1.84,.29,4.36,1.61,6.54,1.88,2.2,.27,3.44-.19,4.32-.96-.51,.36-2.94,1.14-5.49-.26-2.67-1.47-3.8-3.04-7.05-3.44-1.52-.18-2.65,.32-2.65,.32Z"/>
      </g>
    </g>
  </g>
</svg>